<svg xmlns="http://www.w3.org/2000/svg" version="1.1" xmlns:xlink="http://www.w3.org/1999/xlink" xmlns:svgjs="http://svgjs.dev/svgjs" width="2000" height="2250" viewBox="0 0 2000 2250"><g transform="matrix(1,0,0,1,0.000012850225743932242,0)"><svg viewBox="0 0 320 360" data-background-color="#ffffff" preserveAspectRatio="xMidYMid meet" height="2250" width="2000" xmlns="http://www.w3.org/2000/svg" xmlns:xlink="http://www.w3.org/1999/xlink"><g id="tight-bounds" transform="matrix(1,0,0,1,0.0000020560361235766322,0)"><svg viewBox="0 0 320 360" height="360" width="320"><g><svg></svg></g><g><svg viewBox="0 0 320 360" height="360" width="320"><g><path transform="translate(-15.58119,4.24857) scale(3.51065,3.51065)" d="M51.5 85.2c-0.4-0.5-0.8-0.2-0.8-0.5-2.4 0.6-6.9-1-8.8-0.8 0.4-0.6-0.6-0.5-0.6-0.9-0.4 0.6-0.8 0-1.4 0.2-0.6-1.5-3-0.4-3.3-2.3-1.4 0-1.9-0.8-3.3-1.6 0.1-0.1 0.2-0.1 0.3-0.2-0.7-0.1-0.7-0.5-1.3-0.5l0.2-0.4c-1.1-0.2-1.5-1.9-3.1-2.5-0.5-0.1-1.6-1.8-2.2-2.2-0.3-0.2-0.8-0.2-0.1-0.3-0.1-0.1-0.1-0.3 0-0.4-0.7-0.2-0.8-0.8-1.7-1.1-0.1-0.3 0.2-0.5 0-0.7-0.2-0.1-0.5 0.1-0.7 0-0.1 1.8 1.9 2 2.5 3.5-0.2-0.2-0.5-0.8-0.7-0.4-0.1 0.3 0.8 1.4 0.8 0.8-0.3 0.2-0.4-0.3-0.2-0.4 0.3 0.5 0.9 0.4 0.9 0.8-0.3 0.3-0.7-0.3-0.6 0.2 0.9 0.5 0.8 1 1.3 1.7-0.4-0.5-0.5 0.4-0.9 0-0.1-1.5-1.8-1.2-1.8-2.7-0.2-0.5-0.4-0.1-0.7-0.3 0.4-0.4-1.2-1.8-1.2-1.3-0.5-0.6-0.2-0.8-0.3-1.2-0.4-0.1-0.1 0.4-0.4 0.1 0.4-0.7-0.5-1.6-1.1-2.3l0.4-0.2c-0.7-0.4-0.8-1.2-1.3-2.1-0.6 0.9 1.2 2.9 0.9 3.3 0 0.1 0.7 0.9 0.9 1.3 0.8 1.4 1.4 3.1 2.5 3.9-0.2-0.1-0.1-0.7 0.2-0.4 0 0.3-0.2 0.6-0.2 0.9 0.6 0.6 1.1 1.1 1.7 1.7-1.3-0.8-2.6-1.6-3.5-2.8 0.5-0.1 1 0.8 1.4 0.7-1-0.8-0.7-1.1-1.1-2.1-0.4-0.3 0.1 0.4-0.3 0.5-1.3-1.2-2.3-1.9-2.9-3 0.1-0.1 0.2-0.2 0.2-0.4-0.1-0.1-0.1-0.1-0.2-0.2 0.6 0.6 0.8 1.1 1.5 1.2-0.3-0.3 0-0.4-0.4-0.7-0.2-0.4-0.5 0.2-0.7-0.1 0.2-0.3 0-0.7 0-1-0.2 0-0.4 0-0.5-0.3-0.2-0.1-0.3 0-0.4 0.2-0.1-0.1-0.1-0.3-0.2-0.4v-0.1c-0.1-0.1-0.2-0.3-0.3-0.4-0.8-2.1-1.3-4.9-2.4-6.7 0.3-1.2-0.2-3.6-0.5-4.2 0.3-0.5 0.1-2.8-0.1-3.2-0.5 0.2 0.1 1.3-0.4 1.6-0.5-2.2 0.3-4.7 0.1-6.7 0.2 0 0.4 0 0.4-0.1-0.3-0.3 0.2-0.9 0.1-1.6 0.4-0.9-0.9 1.3-0.9 2.2-0.1 0.2-0.5 0-0.4 0.5 0 0.7 0.2 2.1-0.2 3.1-0.2 0-0.2-0.2-0.4-0.1-0.1 0.5-0.2 1.1-0.3 1.6-0.1-0.2-0.2-0.5-0.2-0.6-0.5-2.5 0-5.4-0.2-7.5 0.4 0 0.4-0.6 0.7-0.8-0.1 0.8-0.3 1.8 0.2 2 0.4-3.9 1.2-8.2 3-12.4 1.3-3.1 3.2-6.2 5.5-8.7 0.2 0.3-0.1 1 0 1.3 2-2.1 3.3-4.6 5.5-6 0.1 0.5-0.9 0.9-0.9 1.3 0.9-0.9 1.2-0.6 2.2-0.9 0.3-0.4-0.4 0-0.5-0.4 0.6-0.4 1-0.9 1.4-1.2 0 0.1-0.1 0.1-0.1 0.2 1.1-0.3 1.2-0.9 2-1.1-0.1-0.1-0.3-0.2-0.6-0.1 0.2-0.1 0.5-0.3 0.8-0.4-0.1 0-0.1 0.1-0.2 0.1 0.6-0.3 0.1 0.1 0.1 0.3 0.1 0 0.2-0.1 0.2-0.1-0.6 0.4-1 0.6-1.2 1.3 0.3-0.2 0.4 0 0.8-0.3 0.4-0.2-0.1-0.5 0.2-0.7 0.3 0.2 0.7 0.1 1 0.1 0-0.2 0.1-0.4 0.3-0.5 0.1-0.2 0-0.3-0.1-0.3 0.1-0.1 0.2-0.1 0.4-0.2 0 0 0.1 0 0.1 0.1 1.7-0.8 3.6-1.5 5.4-2.1 1.1-0.1 2.5-0.1 3.1-0.8-0.2 0-0.4 0.1-0.5 0 0.1 0 0.3-0.1 0.4-0.1 0.2 0.2 0.5 0 0.2 0.4 0.1 0 0.1 0 0.2-0.1 0 0.1 0 0.1 0.1 0.2 0.1 0 0.2-0.1 0.3-0.3 0.1 0 0.2 0 0.3-0.1l-0.1 0.1c0.8-0.2 1.5-0.1 2.6-0.3 0-0.1 0-0.2 0-0.3 0.2 0 0.3-0.1 0.5-0.1v0.1c0.4-0.2 0.8 0.2 0.8 0 0.1 0 0.1 0 0.2 0 0 0.2-0.1 0.3-0.1 0.4 0.5 0 0.8 0 1-0.3-0.1-0.1-0.2-0.1-0.3-0.1 0.2 0 0.4-0.1 0.6-0.2 0.3 0.1 0.4 0.2 0.4 0.6 0.5-0.9 2.1 0.2 2.8 0 0.3 0 0.2-0.4 0.4-0.6 0.1 0 0.2 0 0.3 0 0.5 0.4 1.2 0.8 2.1 0.9-0.8-0.2 0.1-0.3 0.2-0.4-0.2 0-0.2-0.1-0.2-0.2 0.3 0 0.6 0.1 0.9 0.1 0 0.2 0.1 0.3 0.3 0.3 0.2 0 0.2-0.1 0.2-0.3 0.3 0 0.5 0 0.8 0.1-0.1 0.4 0.5 0.5 0.7 0.8-0.8-0.2-1.7-0.5-2 0 3.2 0.7 6.7 1.7 10.1 3.4 0 0 0 0 0 0.1h0.1c0.6 0.3 1.2 0.6 1.8 0.9 0.4 0.2 0.7 0.4 1.1 0.7 0 0.1 0 0.2 0.2 0.2h0.1c0.4 0.3 0.8 0.5 1.2 0.8 0.4 0.6 0.8 1.4 1.5 1.2 1.5 2.3 3.1 3.2 4.4 5.6 0.1-0.4 0.4 0.9 0.9 1-0.8-0.1 0.5 0.5-0.3 0.4 0.7 0.7 0.9 1 1 1.8-0.2-0.4-0.3-0.5-0.4-0.1-0.1 0.6 0.7-0.1 1 0.5-0.6 0-0.4 0.4-0.3 0.9 0.3-0.3 0.2-0.6 0.5-0.5 0.4 0.4-0.2 0.5-0.1 0.8 0.3-0.4 0.4-0.2 0.8 0-0.5 0.1 0.3 0.8-0.3 0.5 0.4 0.5 0.5 0.8 0.3 1.3-0.4-0.6-0.1-1-0.7-0.9 1.2 1 0.6 3.3 2 3.5-0.9 0.2 0 0.6-0.5 0.7 0.6 0.2 0.3 1 1 1.2-0.1 0.5-0.3 0.8-0.4 1.3 0.3 0.4 0.4 1.2 0.9 1.3-0.3 0.3-0.1 1.1-0.4 1.4 0.4-0.2 0.6-0.2 0.9 0.2-0.5 0.4-0.1 0.8-0.4 0.9 0.9 2.3-0.2 7 0.3 8.8-0.6-0.3-0.4 0.7-0.8 0.7 0.7 0.3 0.1 0.8 0.4 1.3-1.4 0.8 0 3-1.9 3.5 0.2 1.4-0.6 2-1.2 3.5-0.1-0.1-0.1-0.2-0.2-0.3-0.1 0.7-0.5 0.8-0.3 1.4l-0.4-0.2c0 1.1-1.7 1.7-2.1 3.4-0.1 0.5-1.6 1.8-2 2.5-0.2 0.3-0.1 0.8-0.3 0.1-0.1 0.1-0.3 0.1-0.4 0.1-0.1 0.7-0.7 0.9-0.9 1.8-0.2 0.1-0.5-0.2-0.7 0.1 0 0.2 0.2 0.5 0.1 0.7 1.8-0.1 1.8-2.2 3.2-2.9-0.1 0.3-0.7 0.6-0.3 0.8 0.3 0 1.2-1 0.7-0.9 0.3 0.2-0.3 0.4-0.4 0.3 0.5-0.4 0.3-0.9 0.7-1 0.3 0.2-0.3 0.7 0.3 0.6 0.4-0.9 0.9-1 1.5-1.5-0.4 0.4 0.5 0.5 0.1 0.9-1.5 0.3-1 2-2.5 2.2-0.4 0.3-0.1 0.4-0.2 0.7-0.5-0.3-1.6 1.4-1.2 1.3-0.5 0.5-0.8 0.3-1.2 0.4-0.1 0.4 0.4 0.1 0.2 0.4-0.7-0.3-1.6 0.7-2.2 1.4l-0.3-0.3c-0.3 0.8-1.1 0.9-2 1.5 1 0.5 2.7-1.6 3.2-1.3 0.1 0 0.9-0.8 1.2-1.1 1.3-1 2.9-1.8 3.5-2.9-0.1 0.2-0.7 0.2-0.4-0.1 0.3-0.1 0.6 0.1 0.9 0.1 1.6-2.2 3.6-4 5.1-6.6 0.1-0.1 0.2-0.3 0.3-0.5-0.2 0.6-0.5 1.1-0.7 1.7-1.6 1.1-2.2 4.3-4.1 4.8 0.1 1.1-0.9 1.4-1.4 2.7-0.3 0.4-0.5-0.3-0.8 0.2 0.3 1.4-2.5 1.3-2.4 2.6-0.2 0.1-0.5 0.2-0.7 0.4h-0.1c-0.1 0.1-0.1 0.1-0.2 0.2-0.5 0.3-0.9 0.6-1.3 0.9-1.4 0.8-3.3 1.4-4.8 2.2v-0.1c-0.4 0.2-0.9 0.1-0.8 0.5-0.3 0.2-0.6 0.4-0.9 0.6-0.1 0-0.1 0-0.2 0 0 0-0.1-0.1-0.2-0.1-0.2 0-0.2 0-0.3 0.1-1.3 0.1-3 0.7-3.5 1.1-0.5-0.3-2.8 0.2-3.2 0.4 0.2 0.3 0.8 0 1.3 0-0.3 0.1-0.6 0.2-0.7 0.4-0.1 0-0.1 0-0.2 0-0.1-0.3-0.4 0-0.5-0.1h0.1c-0.1-0.4-0.4-0.6-0.9-0.5 0 0.2 0 0.3-0.1 0.5 0.2 0 0.8-0.3 0.8 0-0.1 0-0.1 0.1 0 0.1-0.2 0.2-0.5 0.2-0.7 0.3-0.4 0-0.9 0-1.3 0-0.1-0.1-0.2-0.1-0.4-0.2-0.1 0.1-0.3 0.1-0.4 0.2-0.6 0-1.3 0.1-1.8 0.2 0-0.2 0-0.4-0.2-0.4-0.3 0.4-0.9-0.1-1.6 0.1-0.7-0.2 0.4 0.3 1.4 0.5-0.1 0.1-0.2 0.2-0.5 0.3M37.5 86.6c-1.4-1.3-4.3-1.9-4.8-2.9-0.8-0.1-2-1.6-3-1.8 0.5 0 0.1-0.3 0-0.5-0.2 0.2-0.4 0.3-0.6 0.3 0-0.8-0.8-1.3-1.5-1.8 0.5 0.3 0.9 0.5 1.5 0.6 0-0.2 0-0.4 0.2-0.4 0.7 0.7 1.5 1.4 2.4 2.1 1.2 1.1 7.4 3.9 8.5 4.4 0 0-0.2 0.4-0.1 0.4 0.5 0.3 0.9-0.3 1 0.4-1.6 0.2-2.2-0.9-3.6-0.8M83.6 63.4v0.1 0c-0.1 0 0-0.1 0-0.1M43.2 17.1c-0.1 0.1-0.2 0.1-0.2 0.1 0-0.1 0.1-0.1 0.2-0.1M41.3 17.6c0 0.1 0 0.1 0 0 0 0.1 0 0.1 0 0 0 0.1 0 0 0 0M34.7 19.7v0c0.1-0.1 0.1-0.1 0.2-0.1-0.1 0-0.2 0.1-0.2 0.1M50.7 16.4c-0.2 0-0.3 0-0.4-0.1 0.1 0 0.2 0 0.3 0h0.1c0 0 0 0 0 0.1M52.5 16.6c-0.1-0.1-0.4-0.2-0.7-0.2 0-0.1 0.1-0.2 0.1-0.2 0.1 0 0.2 0 0.3 0 0 0 0.1 0 0.1 0.1 0 0 0 0 0-0.1 0.1 0 0.1 0 0.2 0 0.1 0.2 0.2 0.3 0 0.4M55.8 16.9c-0.5 0.1-0.8-0.1-1.3-0.4 0.3 0 0.7 0.1 1 0.2 0.1 0 0.2 0.1 0.3 0.2M91.4 31.1c-0.2 0.1-0.3 0.1-0.5-0.3-1.6-3.4-4.5-8.3-8.7-12.4-4.1-4.2-9.6-7.6-14.6-9.4 0.3 0.1 0.7 0.3 0.5 0.5-4.4-1.7-8.6-2.7-12.6-3.1-10.8-1.7-22.1 0.6-30.8 6.2 0.1 0.2 0.1 0.3-0.2 0.5-3.2 2-7.7 5.5-11.3 10.1-3.6 4.6-6.4 10.4-7.6 15.6 0.1-0.3 0.2-0.8 0.4-0.6-2.6 10.3-1.9 19.1 1.7 26.7 0.2-0.2-0.5-1.2 0.1-1.1 0.4 1.1 0.9 2.3 1.5 3.4 0.7 1.6 1.5 3.7 2.6 4.2-2.8-5.5-4.7-11.8-4.9-17.4 0.4 0.8 0.3 2.5 0.9 3.2 0.2-3.8-0.7-8.9 0.6-12.5-0.3 1.9-0.5 4.5-0.3 7.1 0 1.9 0.9 7.2 1.5 7.7-0.1-0.1-0.1-0.6 0-0.6 0.3 0.6-0.4 0.9 0.1 1 0-0.2 0.1-0.2 0.2-0.2 1 2.2 2.3 5.6 3.3 7.3 1.2 2.2 2.8 4.2 4.6 6 0 0.1 0.1 0.1 0.1 0.2 0.2 0.5 0.9 1.1 1.1 1.5 0.1 0.2-0.1 0.5 0 0.7 1.5 2.8 3.7 5.6 6.4 7.8 1.7 2 4.4 4.1 7.7 5.9 3.2 1.7 6.9 3.1 10.3 3.9 2.4 0.6 5.3 0.7 7.1 1.1 2.4 0.5 6.6-0.2 8.7-0.6 12.6-1.9 25.1-10.5 31.4-22.9 6.5-12.5 6.3-27.8 0.7-39.5" fill="#010c80" fill-rule="nonzero" stroke="none" stroke-width="1" stroke-linecap="butt" stroke-linejoin="miter" stroke-miterlimit="10" stroke-dasharray="" stroke-dashoffset="0" font-family="none" font-weight="none" font-size="none" text-anchor="none" style="mix-blend-mode: normal" data-fill-palette-color="tertiary"></path></g><g transform="matrix(1,0,0,1,80,157.9621771665286)"><svg viewBox="0 0 160 44.07564566694284" height="44.07564566694284" width="160"><g><svg viewBox="0 0 160 44.07564566694284" height="44.07564566694284" width="160"><g><svg viewBox="0 0 160 44.07564566694284" height="44.07564566694284" width="160"><g transform="matrix(1,0,0,1,0,27.24051724937863)"><svg viewBox="0 0 160 16.83512841756421" height="16.83512841756421" width="160"><g id="textblocktransform"><svg viewBox="0 0 160 16.83512841756421" height="16.83512841756421" width="160" id="textblock"><g><svg viewBox="0 0 160 16.83512841756421" height="16.83512841756421" width="160"><g transform="matrix(1,0,0,1,0,0)"><svg width="160" viewBox="2.2 -37.6 362.08 38.1" height="16.83512841756421" data-palette-color="#010c80"><path d="M34.2-14.65L34.2-14.65Q34.2-8.9 32.2-5.58 30.2-2.25 26.6-0.88 23 0.5 18.2 0.5L18.2 0.5Q12.2 0.5 8.7-1.35 5.2-3.2 3.7-6.83 2.2-10.45 2.2-15.65L2.2-15.65 2.2-35.95Q2.2-37.1 3.15-37.1L3.15-37.1 12.65-37.1Q13.55-37.1 13.55-36.05L13.55-36.05 13.55-14.45Q13.55-10.65 15.03-9.05 16.5-7.45 19.05-7.45L19.05-7.45Q20.6-7.45 21.93-8.08 23.25-8.7 24.05-10.28 24.85-11.85 24.85-14.6L24.85-14.6 24.85-35.95Q24.85-37.1 25.8-37.1L25.8-37.1 33.3-37.1Q34.2-37.1 34.2-36.05L34.2-36.05 34.2-14.65ZM63.85-37.1L71.1-37.1Q71.85-37.1 71.85-36.25L71.85-36.25 71.85-0.9Q71.85-0.5 71.52-0.25 71.2 0 70.7 0L70.7 0 63.85 0Q63.45 0 63.17-0.13 62.9-0.25 62.5-0.75L62.5-0.75 48.75-19.4Q48.55-19.65 48.4-19.6 48.25-19.55 48.25-19.3L48.25-19.3 48.25-1.1Q48.3 0 47.05 0L47.05 0 40.25 0Q39 0 39-1L39-1 39-35.95Q39-37.1 40.1-37.1L40.1-37.1 48.25-37.1Q48.9-37.1 49.22-36.93 49.55-36.75 49.95-36.2L49.95-36.2 61.95-19.5Q62.3-19.05 62.52-19.07 62.75-19.1 62.75-19.7L62.75-19.7 62.75-36.05Q62.75-37.1 63.85-37.1L63.85-37.1ZM78-37.1L87.5-37.1Q88.4-37.1 88.4-36.05L88.4-36.05 88.4-1.45Q88.4-0.65 88-0.33 87.6 0 86.75 0L86.75 0 78.4 0Q77.6 0 77.32-0.3 77.05-0.6 77.05-1.25L77.05-1.25 77.05-35.95Q77.05-37.1 78-37.1L78-37.1ZM126.04-1.6L126.04-1.6Q126.29-0.95 126.02-0.48 125.74 0 125.14 0L125.14 0 115.44 0Q114.39 0 114.09-1.05L114.09-1.05 109.39-13.95Q109.09-14.75 107.84-14.75L107.84-14.75 105.54-14.75Q105.19-14.75 105.07-14.53 104.94-14.3 104.94-14.2L104.94-14.2 104.94-1.45Q104.94 0 103.29 0L103.29 0 94.89 0Q94.14 0 93.87-0.3 93.59-0.6 93.59-1.25L93.59-1.25 93.59-35.95Q93.59-37.1 94.54-37.1L94.54-37.1 111.24-37.1Q118.49-37.1 122.49-34.33 126.49-31.55 126.49-26.5L126.49-26.5Q126.49-24.15 125.64-22.15 124.79-20.15 123.32-18.73 121.84-17.3 119.94-16.55L119.94-16.55Q119.44-16.35 119.74-15.6L119.74-15.6 126.04-1.6ZM110.79-22.2L110.79-22.2Q112.69-22.2 113.72-23.2 114.74-24.2 114.74-25.8L114.74-25.8Q114.74-27.7 113.47-28.7 112.19-29.7 110.49-29.7L110.49-29.7 106.09-29.7Q104.94-29.7 104.94-28.7L104.94-28.7 104.94-23.25Q104.94-22.2 105.79-22.2L105.79-22.2 110.79-22.2ZM146.99 0.5L146.99 0.5Q141.49 0.5 137.44-1.83 133.39-4.15 131.19-8.43 128.99-12.7 128.99-18.45L128.99-18.45Q128.99-24.25 131.24-28.55 133.49-32.85 137.54-35.23 141.59-37.6 146.99-37.6L146.99-37.6Q152.39-37.6 156.42-35.23 160.44-32.85 162.67-28.55 164.89-24.25 164.89-18.45L164.89-18.45Q164.89-12.7 162.69-8.45 160.49-4.2 156.47-1.85 152.44 0.5 146.99 0.5L146.99 0.5ZM146.99-7.3L146.99-7.3Q150.24-7.3 151.62-9.8 152.99-12.3 152.99-18.3L152.99-18.3Q152.99-24.5 151.59-27.2 150.19-29.9 146.99-29.9L146.99-29.9Q143.74-29.9 142.31-27.2 140.89-24.5 140.89-18.3L140.89-18.3Q140.89-12.3 142.27-9.8 143.64-7.3 146.99-7.3L146.99-7.3ZM185.99 0.5L185.99 0.5Q180.49 0.5 176.44-1.83 172.39-4.15 170.19-8.43 167.99-12.7 167.99-18.45L167.99-18.45Q167.99-24.25 170.24-28.55 172.49-32.85 176.54-35.23 180.59-37.6 185.99-37.6L185.99-37.6Q191.39-37.6 195.41-35.23 199.44-32.85 201.66-28.55 203.89-24.25 203.89-18.45L203.89-18.45Q203.89-12.7 201.69-8.45 199.49-4.2 195.46-1.85 191.44 0.5 185.99 0.5L185.99 0.5ZM185.99-7.3L185.99-7.3Q189.24-7.3 190.61-9.8 191.99-12.3 191.99-18.3L191.99-18.3Q191.99-24.5 190.59-27.2 189.19-29.9 185.99-29.9L185.99-29.9Q182.74-29.9 181.31-27.2 179.89-24.5 179.89-18.3L179.89-18.3Q179.89-12.3 181.26-9.8 182.64-7.3 185.99-7.3L185.99-7.3ZM209.34 0L209.34 0Q208.03 0 208.03-1.4L208.03-1.4 208.03-35.95Q208.03-37.1 209.09-37.1L209.09-37.1 223.09-37.1Q223.74-37.1 224.01-36.93 224.28-36.75 224.49-36.2L224.49-36.2 229.69-20.3Q229.84-19.9 230.03-19.93 230.24-19.95 230.34-20.3L230.34-20.3 234.99-35.65Q235.38-37.1 236.34-37.1L236.34-37.1 250.78-37.1Q251.69-37.1 251.69-36.05L251.69-36.05 251.69-1.45Q251.69 0 250.09 0L250.09 0 241.63 0Q240.88 0 240.61-0.3 240.34-0.6 240.34-1.25L240.34-1.25 240.34-23.7Q240.34-24.1 240.11-24.1 239.88-24.1 239.74-23.65L239.74-23.65 232.53-0.9Q232.19 0 231.34 0L231.34 0 226.09 0Q225.19 0 224.88-0.9L224.88-0.9 217.69-23.25Q217.49-23.85 217.28-23.78 217.09-23.7 217.09-23.2L217.09-23.2 217.09-1.1Q217.09-0.45 216.88-0.23 216.69 0 215.99 0L215.99 0 209.34 0ZM277.63-14.85L269.03-14.85Q268.23-14.85 268.23-14.1L268.23-14.1 268.23-1.45Q268.23 0 266.58 0L266.58 0 258.23 0Q257.43 0 257.16-0.3 256.88-0.6 256.88-1.25L256.88-1.25 256.88-35.95Q256.88-37.1 257.83-37.1L257.83-37.1 267.33-37.1Q268.23-37.1 268.23-36.05L268.23-36.05 268.23-24.45Q268.23-23.45 269.13-23.45L269.13-23.45 277.53-23.45Q278.43-23.45 278.43-24.45L278.43-24.45 278.43-36.05Q278.43-37.1 279.33-37.1L279.33-37.1 288.83-37.1Q289.78-37.1 289.78-35.95L289.78-35.95 289.78-1.25Q289.78-0.6 289.51-0.3 289.23 0 288.43 0L288.43 0 280.08 0Q278.43 0 278.43-1.45L278.43-1.45 278.43-14.1Q278.43-14.85 277.63-14.85L277.63-14.85ZM326.58-14.65L326.58-14.65Q326.58-8.9 324.58-5.58 322.58-2.25 318.98-0.88 315.38 0.5 310.58 0.5L310.58 0.5Q304.58 0.5 301.08-1.35 297.58-3.2 296.08-6.83 294.58-10.45 294.58-15.65L294.58-15.65 294.58-35.95Q294.58-37.1 295.53-37.1L295.53-37.1 305.03-37.1Q305.93-37.1 305.93-36.05L305.93-36.05 305.93-14.45Q305.93-10.65 307.4-9.05 308.88-7.45 311.43-7.45L311.43-7.45Q312.98-7.45 314.31-8.08 315.63-8.7 316.43-10.28 317.23-11.85 317.23-14.6L317.23-14.6 317.23-35.95Q317.23-37.1 318.18-37.1L318.18-37.1 325.68-37.1Q326.58-37.1 326.58-36.05L326.58-36.05 326.58-14.65ZM332.53 0L332.53 0Q332.03 0 331.7-0.33 331.38-0.65 331.38-1.1L331.38-1.1 331.38-35.8Q331.38-36.35 331.73-36.73 332.08-37.1 332.63-37.1L332.63-37.1 347.53-37.1Q355.28-37.1 359.33-34.63 363.38-32.15 363.38-27.3L363.38-27.3Q363.38-24.7 361.98-22.88 360.58-21.05 356.83-19.3L356.83-19.3Q356.73-19.25 356.73-19.13 356.73-19 356.83-18.95L356.83-18.95Q360.98-17.4 362.63-15.35 364.28-13.3 364.28-10.1L364.28-10.1Q364.28-4.95 360.35-2.48 356.43 0 348.33 0L348.33 0 332.53 0ZM343.58-7.5L348.08-7.5Q350.28-7.5 351.38-8.7 352.48-9.9 352.48-11.35L352.48-11.35Q352.48-12.4 351.95-13.2 351.43-14 350.5-14.45 349.58-14.9 348.33-14.9L348.33-14.9 343.88-14.9Q342.73-14.9 342.73-13.85L342.73-13.85 342.73-8.6Q342.73-7.5 343.58-7.5L343.58-7.5ZM343.58-22.6L348.33-22.6Q349.23-22.6 349.93-22.85 350.63-23.1 351.13-23.58 351.63-24.05 351.9-24.65 352.18-25.25 352.18-26L352.18-26Q352.18-27.65 350.95-28.63 349.73-29.6 347.98-29.6L347.98-29.6 343.88-29.6Q342.73-29.6 342.73-28.6L342.73-28.6 342.73-23.7Q342.73-22.6 343.58-22.6L343.58-22.6Z" opacity="1" transform="matrix(1,0,0,1,0,0)" fill="#010c80" class="wordmark-text-0" data-fill-palette-color="primary" id="text-0"></path></svg></g></svg></g></svg></g></svg></g><g transform="matrix(1,0,0,1,63.38573632304923,0)"><svg viewBox="0 0 33.22852735390154 23.26614747307374" height="23.26614747307374" width="33.22852735390154"><g><svg xmlns="http://www.w3.org/2000/svg" xmlns:xlink="http://www.w3.org/1999/xlink" version="1.1" x="0" y="0" viewBox="1 14 97.884 68.537" enable-background="new 0 0 100 100" xml:space="preserve" height="23.26614747307374" width="33.22852735390154" class="icon-icon-0" data-fill-palette-color="accent" id="icon-0"><g fill="#010c80" data-fill-palette-color="accent"><polygon points="1,62.22 1,34.836 46.602,55.735 46.602,82.537  " fill="#010c80" data-fill-palette-color="accent"></polygon><polygon points="53.283,55.735 98.884,34.835 98.884,62.22 53.283,82.537  " fill="#010c80" data-fill-palette-color="accent"></polygon><polygon points="53.203,40.799 53.203,14 94.727,32.498 64.909,46.165  " fill="#010c80" data-fill-palette-color="accent"></polygon><polygon points="5.159,32.498 46.679,14 46.679,40.799 34.976,46.165  " fill="#010c80" data-fill-palette-color="accent"></polygon></g></svg></g></svg></g><g></g></svg></g></svg></g></svg></g></svg></g><defs></defs></svg><rect width="320" height="360" fill="none" stroke="none" visibility="hidden"></rect></g></svg></g></svg>