<svg width="24" height="24" viewBox="0 0 24 24" fill="none" xmlns="http://www.w3.org/2000/svg">
    <mask id="mask0_1834_375524" style="mask-type:alpha" maskUnits="userSpaceOnUse" x="1" y="1" width="22" height="22">
        <circle cx="12" cy="12" r="11" fill="#FAFAFA" />
    </mask>
    <g mask="url(#mask0_1834_375524)">
        <circle cx="12" cy="12" r="11" fill="#FAFAFA" />
        <path fill-rule="evenodd" clip-rule="evenodd"
            d="M22 2H2V4H22V2ZM2 6H22V8H2V6ZM22 10H2V12H22V10ZM2 14H22V16H2V14ZM22 18H2V20H22V18ZM22 22H2V24H22V22Z"
            fill="#E61E50" />
        <rect x="2" y="2" width="10" height="10" fill="#176BA0" />
        <path
            d="M10 5L10.2939 5.59549L10.9511 5.69098L10.4755 6.15451L10.5878 6.80902L10 6.5L9.41221 6.80902L9.52447 6.15451L9.04894 5.69098L9.70611 5.59549L10 5Z"
            fill="#FAFAFA" />
        <path
            d="M10 1L10.2939 1.59549L10.9511 1.69098L10.4755 2.15451L10.5878 2.80902L10 2.5L9.41221 2.80902L9.52447 2.15451L9.04894 1.69098L9.70611 1.59549L10 1Z"
            fill="#FAFAFA" />
        <path
            d="M10 9L10.2939 9.59549L10.9511 9.69098L10.4755 10.1545L10.5878 10.809L10 10.5L9.41221 10.809L9.52447 10.1545L9.04894 9.69098L9.70611 9.59549L10 9Z"
            fill="#FAFAFA" />
        <path
            d="M7 5L7.29389 5.59549L7.95106 5.69098L7.47553 6.15451L7.58779 6.80902L7 6.5L6.41221 6.80902L6.52447 6.15451L6.04894 5.69098L6.70611 5.59549L7 5Z"
            fill="#FAFAFA" />
        <path
            d="M4 5L4.29389 5.59549L4.95106 5.69098L4.47553 6.15451L4.58779 6.80902L4 6.5L3.41221 6.80902L3.52447 6.15451L3.04894 5.69098L3.70611 5.59549L4 5Z"
            fill="#FAFAFA" />
        <path
            d="M7 9L7.29389 9.59549L7.95106 9.69098L7.47553 10.1545L7.58779 10.809L7 10.5L6.41221 10.809L6.52447 10.1545L6.04894 9.69098L6.70611 9.59549L7 9Z"
            fill="#FAFAFA" />
        <path
            d="M4 9L4.29389 9.59549L4.95106 9.69098L4.47553 10.1545L4.58779 10.809L4 10.5L3.41221 10.809L3.52447 10.1545L3.04894 9.69098L3.70611 9.59549L4 9Z"
            fill="#FAFAFA" />
        <path
            d="M9 3L9.29389 3.59549L9.95106 3.69098L9.47553 4.15451L9.58779 4.80902L9 4.5L8.41221 4.80902L8.52447 4.15451L8.04894 3.69098L8.70611 3.59549L9 3Z"
            fill="#FAFAFA" />
        <path
            d="M6 3L6.29389 3.59549L6.95106 3.69098L6.47553 4.15451L6.58779 4.80902L6 4.5L5.41221 4.80902L5.52447 4.15451L5.04894 3.69098L5.70611 3.59549L6 3Z"
            fill="#FAFAFA" />
        <path
            d="M9 7L9.29389 7.59549L9.95106 7.69098L9.47553 8.15451L9.58779 8.80902L9 8.5L8.41221 8.80902L8.52447 8.15451L8.04894 7.69098L8.70611 7.59549L9 7Z"
            fill="#FAFAFA" />
        <path
            d="M6 7L6.29389 7.59549L6.95106 7.69098L6.47553 8.15451L6.58779 8.80902L6 8.5L5.41221 8.80902L5.52447 8.15451L5.04894 7.69098L5.70611 7.59549L6 7Z"
            fill="#FAFAFA" />
        <path
            d="M3 7L3.29389 7.59549L3.95106 7.69098L3.47553 8.15451L3.58779 8.80902L3 8.5L2.41221 8.80902L2.52447 8.15451L2.04894 7.69098L2.70611 7.59549L3 7Z"
            fill="#FAFAFA" />
        <circle cx="12" cy="12" r="10.5" stroke="#FAFAFA" />
    </g>
</svg>